# xmcd
#
# Track frame offsets: 
#        150
#        13710
#        28526
#        50137
#        93416
#        120903
#        153879
#        171696
#        210053
#        261431
#
# Disc length: 3757 seconds
#
# Revision: 1
# Processed by: cddbd v1.5.2PL0 Copyright (c) Steve Scherf et al.
# Submitted via: ExactAudioCopy v1.0b3
#
DISCID=7d0eab0a
DTITLE=Stan The Man's Bohemian Blues Band - Booze, Ballads and Boogie
DYEAR=2006
DGENRE=Blues
TTITLE0=Six Foot Cutie
TTITLE1=Just Like I Treat You
TTITLE2=Who's Been Talking
TTITLE3=Rock Me Baby
TTITLE4=Sloppy Drunk Blues
TTITLE5=Came Up The Hard Way
TTITLE6=Next Time You See Me
TTITLE7=Unchain My Heart
TTITLE8=Brown Liquor
TTITLE9=It's All Over Now
EXTD=
EXTT0=
EXTT1=
EXTT2=
EXTT3=
EXTT4=
EXTT5=
EXTT6=
EXTT7=
EXTT8=
EXTT9=
PLAYORDER=
